<svg width="1366" height="1167" viewBox="0 0 1366 1167" fill="none" xmlns="http://www.w3.org/2000/svg">
<rect width="1366" height="1167" fill="#1E1E1E"/>
<mask id="mask0_0_1" style="mask-type:luminance" maskUnits="userSpaceOnUse" x="0" y="0" width="1366" height="1166">
<path d="M0.25 0H1365.08V1166H0.25V0Z" fill="white"/>
</mask>
<g mask="url(#mask0_0_1)">
<path d="M0.25 0H1365.08V1166H0.25V0Z" fill="white"/>
</g>
<path d="M168.979 148.229V1133.55" stroke="black" stroke-width="1.99829"/>
<path d="M168.984 716.062H180.974V718.062H168.984M182.974 716.062H194.964V718.062H182.974M196.964 716.062H208.953V718.062H196.964M210.948 716.062H222.938V718.062H210.948M224.938 716.062H236.927V718.062H224.938M238.927 716.062H250.917V718.062H238.927M252.911 716.062H264.901V718.062H252.911M266.901 716.062H278.891V718.062H266.901M280.891 716.062H292.88V718.062H280.891M294.875 716.062H306.865V718.062H294.875M308.865 716.062H320.854V718.062H308.865M322.854 716.062H334.844V718.062H322.854M336.844 716.062H348.833V718.062H336.844M350.828 716.062H362.818V718.062H350.828M364.818 716.062H376.807V718.062H364.818M378.807 716.062H390.797V718.062H378.807M392.792 716.062H404.781V718.062H392.792M406.781 716.062H418.771V718.062H406.781M420.771 716.062H432.76V718.062H420.771M434.755 716.062H446.745V718.062H434.755M448.745 716.062H460.734V718.062H448.745M462.734 716.062H474.724V718.062H462.734M476.719 716.062H488.714V718.062H476.719M490.708 716.062H502.698V718.062H490.708M504.698 716.062H516.688V718.062H504.698M518.688 716.062H530.677V718.062H518.688M532.672 716.062H544.661V718.062H532.672M546.661 716.062H558.651V718.062H546.661M560.651 716.062H572.641V718.062H560.651M574.635 716.062H586.625V718.062H574.635M588.625 716.062H600.615V718.062H588.625M602.615 716.062H614.604V718.062H602.615M616.599 716.062H628.594V718.062H616.599M630.589 716.062H642.578V718.062H630.589M644.578 716.062H656.568V718.062H644.578M658.568 716.062H670.557V718.062H658.568M672.552 716.062H684.542V718.062H672.552M686.542 716.062H698.531V718.062H686.542M700.531 716.062H712.521V718.062H700.531M714.516 716.062H726.505V718.062H714.516M728.505 716.062H740.495V718.062H728.505M742.495 716.062H754.484V718.062H742.495M756.479 716.062H768.469V718.062H756.479M770.469 716.062H782.458V718.062H770.469M784.458 716.062H796.448V718.062H784.458M798.448 716.062H810.438V718.062H798.448M812.432 716.062H824.422V718.062H812.432M826.422 716.062H838.411V718.062H826.422M840.411 716.062H852.401V718.062H840.411M854.396 716.062H866.385V718.062H854.396M868.385 716.062H880.375V718.062H868.385M882.375 716.062H894.365V718.062H882.375M896.359 716.062H908.349V718.062H896.359M910.349 716.062H922.339V718.062H910.349M924.339 716.062H936.328V718.062H924.339M938.328 716.062H950.318V718.062H938.328M952.312 716.062H964.302V718.062H952.312M966.302 716.062H978.292V718.062H966.302M980.292 716.062H992.281V718.062H980.292M994.276 716.062H1006.27V718.062H994.276M1008.27 716.062H1020.26V718.062H1008.27M1022.26 716.062H1034.24V718.062H1022.26M1036.24 716.062H1048.23V718.062H1036.24M1050.23 716.062H1062.22V718.062H1050.23M1064.22 716.062H1076.21V718.062H1064.22M1078.21 716.062H1090.2V718.062H1078.21M1092.19 716.062H1104.18V718.062H1092.19M1106.18 716.062H1118.17V718.062H1106.18M1120.17 716.062H1132.16V718.062H1120.17M1134.16 716.062H1146.15V718.062H1134.16M1148.15 716.062H1160.14V718.062H1148.15M1162.14 716.062H1174.12V718.062H1162.14M1176.12 716.062H1188.11V718.062H1176.12M1190.11 716.062H1202.1V718.062H1190.11M1204.1 716.062H1216.09V718.062H1204.1M1218.09 716.062H1230.08V718.062H1218.09M1232.07 716.062H1244.06V718.062H1232.07M1246.06 716.062H1258.05V718.062H1246.06M1260.05 716.062H1272.04V718.062H1260.05M1274.04 716.062H1286.03V718.062H1274.04M1288.03 716.062H1300.02V718.062H1288.03M1302.02 716.062H1314.01V718.062H1302.02M1316 716.062H1327.99V718.062H1316M1329.99 716.062H1330.27V718.062H1329.99" fill="black"/>
<mask id="mask1_0_1" style="mask-type:luminance" maskUnits="userSpaceOnUse" x="0" y="0" width="1366" height="126">
<path d="M0.25 0H1365.08V125.245H0.25V0Z" fill="white"/>
</mask>
<g mask="url(#mask1_0_1)">
<mask id="mask2_0_1" style="mask-type:luminance" maskUnits="userSpaceOnUse" x="0" y="0" width="1366" height="126">
<path d="M1365.33 0H0V125.333H1365.33V0Z" fill="white"/>
</mask>
<g mask="url(#mask2_0_1)">
<mask id="mask3_0_1" style="mask-type:luminance" maskUnits="userSpaceOnUse" x="0" y="0" width="1366" height="126">
<path d="M0.25 0H1365.08V125.245H0.25V0Z" fill="white"/>
</mask>
<g mask="url(#mask3_0_1)">
<path d="M-73.6459 -224.557H1645.3V125.245H-73.6459V-224.557Z" fill="#DEF7FF"/>
</g>
</g>
</g>
</svg>
