<svg width="56" height="56" viewBox="0 0 56 56" fill="none" xmlns="http://www.w3.org/2000/svg">
<mask id="mask0_1_1988" style="mask-type:luminance" maskUnits="userSpaceOnUse" x="0" y="0" width="56" height="56">
<path d="M0 0H55.9479V55.9531H0V0Z" fill="white"/>
</mask>
<g mask="url(#mask0_1_1988)">
<path d="M4.64583 0C4.02604 0 3.43229 0.119792 2.85938 0.354167C2.29167 0.588541 1.78646 0.927085 1.34896 1.36458C0.91146 1.80208 0.572916 2.30729 0.338542 2.88021C0.0989577 3.44792 -0.015625 4.04167 -0.015625 4.66146C-0.015625 5.28125 0.0989577 5.875 0.338542 6.44792C0.572916 7.01563 0.91146 7.52083 1.34896 7.95833C1.78646 8.39583 2.29167 8.73437 2.85938 8.96875C3.43229 9.20833 4.02604 9.32292 4.64583 9.32292C5.26562 9.32292 5.85938 9.20833 6.43229 8.96875C7 8.73437 7.50521 8.39583 7.94271 7.95833C8.38021 7.52083 8.71875 7.01563 8.95312 6.44792C9.1875 5.875 9.30729 5.28125 9.30729 4.66146C9.30729 4.04167 9.1875 3.44792 8.95312 2.88021C8.71875 2.30729 8.38021 1.80208 7.94271 1.36458C7.50521 0.927085 7 0.588541 6.43229 0.354167C5.85938 0.119792 5.26562 0 4.64583 0ZM17.0781 3.10938C16.8698 3.10417 16.6719 3.14062 16.4792 3.21875C16.2865 3.29687 16.1146 3.41146 15.9688 3.55729C15.8177 3.70312 15.7031 3.86979 15.625 4.0625C15.5417 4.25521 15.5052 4.45312 15.5052 4.66146C15.5052 4.86979 15.5417 5.06771 15.625 5.26042C15.7031 5.45312 15.8177 5.625 15.9688 5.77083C16.1146 5.91667 16.2865 6.02604 16.4792 6.10417C16.6719 6.18229 16.8698 6.21875 17.0781 6.21875H54.3802C54.5885 6.21875 54.7917 6.18229 54.9844 6.10417C55.1771 6.02604 55.3438 5.91667 55.4948 5.77083C55.6406 5.625 55.7552 5.45312 55.8385 5.26042C55.9167 5.06771 55.9583 4.86979 55.9583 4.66146C55.9583 4.45312 55.9167 4.25521 55.8385 4.0625C55.7552 3.86979 55.6406 3.70312 55.4948 3.55729C55.3438 3.41146 55.1771 3.29687 54.9844 3.21875C54.7917 3.14062 54.5885 3.10417 54.3802 3.10938H17.0781ZM4.64583 15.5417C4.02604 15.5417 3.43229 15.6615 2.85938 15.8958C2.29167 16.1354 1.78646 16.4688 1.34896 16.9062C0.91146 17.3438 0.572916 17.849 0.338542 18.4219C0.0989577 18.9896 -0.015625 19.5885 -0.015625 20.2031C-0.015625 20.8229 0.0989577 21.4167 0.338542 21.9896C0.572916 22.5573 0.91146 23.0625 1.34896 23.5C1.78646 23.9375 2.29167 24.276 2.85938 24.5104C3.43229 24.75 4.02604 24.8646 4.64583 24.8646C5.26562 24.8646 5.85938 24.75 6.43229 24.5104C7 24.276 7.50521 23.9375 7.94271 23.5C8.38021 23.0625 8.71875 22.5573 8.95312 21.9896C9.1875 21.4167 9.30729 20.8229 9.30729 20.2031C9.30729 19.5885 9.1875 18.9896 8.95312 18.4219C8.71875 17.849 8.38021 17.3438 7.94271 16.9062C7.50521 16.4688 7 16.1354 6.43229 15.8958C5.85938 15.6615 5.26562 15.5417 4.64583 15.5417ZM17.0781 18.651C16.8698 18.6458 16.6719 18.6823 16.4792 18.7604C16.2865 18.8385 16.1146 18.9531 15.9688 19.099C15.8177 19.2448 15.7031 19.4115 15.625 19.6042C15.5417 19.7969 15.5052 19.9948 15.5052 20.2031C15.5052 20.4115 15.5417 20.6146 15.625 20.8021C15.7031 20.9948 15.8177 21.1667 15.9688 21.3125C16.1146 21.4583 16.2865 21.5677 16.4792 21.6458C16.6719 21.724 16.8698 21.7604 17.0781 21.7604H54.3802C54.5885 21.7604 54.7917 21.724 54.9844 21.6458C55.1771 21.5677 55.3438 21.4583 55.4948 21.3125C55.6406 21.1667 55.7552 20.9948 55.8385 20.8021C55.9167 20.6146 55.9583 20.4115 55.9583 20.2031C55.9583 19.9948 55.9167 19.7969 55.8385 19.6042C55.7552 19.4115 55.6406 19.2448 55.4948 19.099C55.3438 18.9531 55.1771 18.8385 54.9844 18.7604C54.7917 18.6823 54.5885 18.6458 54.3802 18.651H17.0781ZM4.64583 31.0833C4.02604 31.0833 3.43229 31.2031 2.85938 31.4375C2.29167 31.6771 1.78646 32.0104 1.34896 32.4479C0.91146 32.8854 0.572916 33.3906 0.338542 33.9635C0.0989577 34.5312 -0.015625 35.1302 -0.015625 35.7448C-0.015625 36.3646 0.0989577 36.9583 0.338542 37.5312C0.572916 38.1042 0.91146 38.6042 1.34896 39.0417C1.78646 39.4792 2.29167 39.8177 2.85938 40.0521C3.43229 40.2917 4.02604 40.4115 4.64583 40.4115C5.26562 40.4115 5.85938 40.2917 6.43229 40.0521C7 39.8177 7.50521 39.4792 7.94271 39.0417C8.38021 38.6042 8.71875 38.1042 8.95312 37.5312C9.1875 36.9583 9.30729 36.3646 9.30729 35.7448C9.30729 35.1302 9.1875 34.5312 8.95312 33.9635C8.71875 33.3906 8.38021 32.8854 7.94271 32.4479C7.50521 32.0104 7 31.6771 6.43229 31.4375C5.85938 31.2031 5.26562 31.0833 4.64583 31.0833ZM17.0781 34.1927C16.8698 34.1875 16.6719 34.2292 16.4792 34.3021C16.2865 34.3802 16.1146 34.4948 15.9688 34.6406C15.8177 34.7865 15.7031 34.9531 15.625 35.1458C15.5417 35.3385 15.5052 35.5365 15.5052 35.7448C15.5052 35.9531 15.5417 36.1562 15.625 36.349C15.7031 36.5365 15.8177 36.7083 15.9688 36.8542C16.1146 37 16.2865 37.1094 16.4792 37.1875C16.6719 37.2656 16.8698 37.3021 17.0781 37.3021H54.3802C54.5885 37.3021 54.7917 37.2656 54.9844 37.1875C55.1771 37.1094 55.3438 37 55.4948 36.8542C55.6406 36.7083 55.7552 36.5365 55.8385 36.349C55.9167 36.1562 55.9583 35.9531 55.9583 35.7448C55.9583 35.5365 55.9167 35.3385 55.8385 35.1458C55.7552 34.9531 55.6406 34.7865 55.4948 34.6406C55.3438 34.4948 55.1771 34.3802 54.9844 34.3021C54.7917 34.2292 54.5885 34.1875 54.3802 34.1927H17.0781ZM4.64583 46.625C4.02604 46.625 3.43229 46.7448 2.85938 46.9792C2.29167 47.2188 1.78646 47.5521 1.34896 47.9896C0.91146 48.4271 0.572916 48.9323 0.338542 49.5052C0.0989577 50.0781 -0.015625 50.6719 -0.015625 51.2865C-0.015625 51.9062 0.0989577 52.5 0.338542 53.0729C0.572916 53.6458 0.91146 54.151 1.34896 54.5833C1.78646 55.0208 2.29167 55.3594 2.85938 55.599C3.43229 55.8333 4.02604 55.9531 4.64583 55.9531C5.26562 55.9531 5.85938 55.8333 6.43229 55.599C7 55.3594 7.50521 55.0208 7.94271 54.5833C8.38021 54.151 8.71875 53.6458 8.95312 53.0729C9.1875 52.5 9.30729 51.9062 9.30729 51.2865C9.30729 50.6719 9.1875 50.0781 8.95312 49.5052C8.71875 48.9323 8.38021 48.4271 7.94271 47.9896C7.50521 47.5521 7 47.2188 6.43229 46.9792C5.85938 46.7448 5.26562 46.625 4.64583 46.625ZM17.0781 49.7344C16.8698 49.7292 16.6719 49.7708 16.4792 49.849C16.2865 49.9219 16.1146 50.0365 15.9688 50.1823C15.8177 50.3281 15.7031 50.4948 15.625 50.6875C15.5417 50.8802 15.5052 51.0781 15.5052 51.2865C15.5052 51.4948 15.5417 51.6979 15.625 51.8906C15.7031 52.0781 15.8177 52.25 15.9688 52.3958C16.1146 52.5417 16.2865 52.651 16.4792 52.7292C16.6719 52.8073 16.8698 52.8438 17.0781 52.8438H54.3802C54.5885 52.8438 54.7917 52.8073 54.9844 52.7292C55.1771 52.651 55.3438 52.5417 55.4948 52.3958C55.6406 52.25 55.7552 52.0781 55.8385 51.8906C55.9167 51.6979 55.9583 51.4948 55.9583 51.2865C55.9583 51.0781 55.9167 50.8802 55.8385 50.6875C55.7552 50.4948 55.6406 50.3281 55.4948 50.1823C55.3438 50.0365 55.1771 49.9219 54.9844 49.849C54.7917 49.7708 54.5885 49.7292 54.3802 49.7344H17.0781Z" fill="black"/>
</g>
</svg>
