<svg width="63" height="63" viewBox="0 0 63 63" fill="none" xmlns="http://www.w3.org/2000/svg">
<path d="M10.0312 36.4375H15.0416C15.7343 36.4375 16.2968 35.875 16.2968 35.1875V30.2188C16.2968 29.5313 15.7343 28.9688 15.0416 28.9688H10.0312C9.3385 28.9688 8.776 29.5313 8.776 30.2188V35.1875C8.776 35.875 9.3385 36.4375 10.0312 36.4375Z" fill="black"/>
<path d="M10.0312 46.7083H15.0416C15.7343 46.7083 16.2968 46.151 16.2968 45.4635V40.4948C16.2968 39.802 15.7343 39.2448 15.0416 39.2448H10.0312C9.3385 39.2448 8.776 39.802 8.776 40.4948V45.4635C8.776 46.151 9.3385 46.7083 10.0312 46.7083Z" fill="black"/>
<path d="M10.0312 56.9844H15.0416C15.7343 56.9844 16.2968 56.4271 16.2968 55.7396V50.7656C16.2968 50.0781 15.7343 49.5208 15.0416 49.5208H10.0312C9.3385 49.5208 8.776 50.0781 8.776 50.7656V55.7396C8.776 56.4271 9.3385 56.9844 10.0312 56.9844Z" fill="black"/>
<path d="M22.6562 36.4375H27.6614C28.3541 36.4375 28.9166 35.875 28.9166 35.1875V30.2188C28.9166 29.5313 28.3541 28.9688 27.6614 28.9688H22.6562C21.9635 28.9688 21.401 29.5313 21.401 30.2188V35.1875C21.401 35.875 21.9635 36.4375 22.6562 36.4375Z" fill="black"/>
<path d="M22.6562 46.7083H27.6614C28.3541 46.7083 28.9166 46.151 28.9166 45.4635V40.4948C28.9166 39.802 28.3541 39.2448 27.6614 39.2448H22.6562C21.9635 39.2448 21.401 39.802 21.401 40.4948V45.4635C21.401 46.151 21.9635 46.7083 22.6562 46.7083Z" fill="black"/>
<path d="M22.6562 56.9844H27.6614C28.3541 56.9844 28.9166 56.4271 28.9166 55.7396V50.7656C28.9166 50.0781 28.3541 49.5208 27.6614 49.5208H22.6562C21.9635 49.5208 21.401 50.0781 21.401 50.7656V55.7396C21.401 56.4271 21.9635 56.9844 22.6562 56.9844Z" fill="black"/>
<path d="M35.2812 36.4375H40.2864C40.9791 36.4375 41.5416 35.875 41.5416 35.1875V30.2188C41.5416 29.5313 40.9791 28.9688 40.2864 28.9688H35.2812C34.5833 28.9688 34.0208 29.5313 34.0208 30.2188V35.1875C34.0208 35.875 34.5833 36.4375 35.2812 36.4375Z" fill="black"/>
<path d="M40.2864 49.5208H35.2812C34.5833 49.5208 34.0208 50.0781 34.0208 50.7656V55.7396C34.0208 56.4271 34.5833 56.9844 35.2812 56.9844H40.2864C40.9791 56.9844 41.5416 56.4271 41.5416 55.7396V50.7656C41.5416 50.0781 40.9791 49.5208 40.2864 49.5208Z" fill="black"/>
<path d="M47.901 36.4375H52.9062C53.6041 36.4375 54.1666 35.875 54.1666 35.1875V30.2188C54.1666 29.5313 53.6041 28.9688 52.9062 28.9688H47.901C47.2083 28.9688 46.6458 29.5313 46.6458 30.2188V35.1875C46.6458 35.875 47.2083 36.4375 47.901 36.4375Z" fill="black"/>
<path d="M47.901 46.7083H52.9062C53.6041 46.7083 54.1666 46.151 54.1666 45.4635V40.4948C54.1666 39.802 53.6041 39.2448 52.9062 39.2448H47.901C47.2083 39.2448 46.6458 39.802 46.6458 40.4948V45.4635C46.6458 46.151 47.2083 46.7083 47.901 46.7083Z" fill="black"/>
<mask id="mask0_1_1987" style="mask-type:luminance" maskUnits="userSpaceOnUse" x="0" y="0" width="63" height="63">
<path d="M0 0H62.9427V62.9479H0V0Z" fill="white"/>
</mask>
<g mask="url(#mask0_1_1987)">
<path d="M48.1771 0.026001C47 0.026001 46.0469 0.973918 46.0469 2.14579V6.401H17.0052V2.14579C17.0052 0.973918 16.0521 0.026001 14.875 0.026001C13.6927 0.026001 12.7396 0.973918 12.7396 2.14579V6.401H6.01042C2.69271 6.401 0 9.08329 0 12.3698V56.9531C0 60.2448 2.69271 62.9218 6.01042 62.9218H56.9323C60.2448 62.9218 62.9427 60.2448 62.9427 56.9531V12.3698C62.9427 9.08329 60.2448 6.401 56.9323 6.401H50.3125V2.14579C50.3125 0.973918 49.3594 0.026001 48.1771 0.026001ZM12.7396 9.44267V12.0781C12.7396 13.2448 13.6927 14.1927 14.875 14.1927C16.0521 14.1927 17.0052 13.2448 17.0052 12.0781V9.44267C17.7812 10.0625 18.276 11.0104 18.276 12.0781C18.276 13.9427 16.75 15.4531 14.875 15.4531C12.9948 15.4531 11.4688 13.9427 11.4688 12.0781C11.4688 11.0104 11.9635 10.0625 12.7396 9.44267ZM59.9844 56.9531C59.9844 58.625 58.6146 59.9843 56.9323 59.9843H6.01042C4.32813 59.9843 2.95833 58.625 2.95833 56.9531V25.9739H59.9844V56.9531ZM51.5833 12.0781C51.5833 13.9427 50.0573 15.4531 48.1771 15.4531C46.2969 15.4531 44.776 13.9427 44.776 12.0781C44.776 11.0104 45.2708 10.0625 46.0417 9.44267V12.0729C46.0417 13.2448 47 14.1927 48.1771 14.1927C49.3594 14.1927 50.3125 13.2448 50.3125 12.0729V9.44267C51.0885 10.0625 51.5833 11.0104 51.5833 12.0781Z" fill="black"/>
</g>
<path d="M37.3854 47.3698L43.3489 41.4479C43.9323 40.875 43.9323 39.9427 43.3489 39.3698C42.7708 38.7916 41.8333 38.7916 41.2552 39.3698L37.3854 43.2083L35.8333 41.6666C35.2552 41.0937 34.3177 41.0937 33.7396 41.6666C33.1614 42.2395 33.1614 43.1718 33.7396 43.7448L37.3854 47.3698Z" fill="black"/>
</svg>
